<?xml version="1.0" standalone="no"?>
<!DOCTYPE svg PUBLIC "-//W3C//DTD SVG 20010904//EN"
 "http://www.w3.org/TR/2001/REC-SVG-20010904/DTD/svg10.dtd">
<svg version="1.0" xmlns="http://www.w3.org/2000/svg"
 width="400.000000pt" height="400.000000pt" viewBox="0 0 400.000000 400.000000"
 preserveAspectRatio="xMidYMid meet">
<metadata>
Created by potrace 1.11, written by Peter Selinger 2001-2013
</metadata>
<g transform="translate(0.000000,400.000000) scale(0.100000,-0.100000)"
fill="#000000" stroke="none">
<path d="M2310 3860 c6 -11 20 -25 33 -31 18 -10 17 -6 -7 20 -34 36 -41 39
-26 11z"/>
<path d="M2417 3790 c52 -30 86 -66 77 -81 -3 -5 2 -22 11 -38 17 -35 19 -45
5 -36 -5 3 -7 0 -4 -9 3 -8 -2 -26 -12 -41 -13 -20 -14 -29 -5 -38 13 -13 15
-87 2 -87 -5 0 -11 9 -14 20 -3 11 -13 23 -24 26 -10 4 -25 13 -34 21 -9 8
-20 13 -25 11 -5 -1 -33 6 -63 15 -66 22 -79 14 -20 -12 112 -51 101 -72 -40
-81 -93 -6 -131 -18 -131 -42 0 -5 12 0 26 11 36 28 144 31 144 4 0 -12 3 -14
8 -7 7 12 76 44 94 44 5 0 7 -14 3 -32 -4 -22 -3 -28 3 -20 5 8 20 12 33 10
26 -3 29 -22 16 -86 -4 -21 -3 -31 3 -27 12 8 12 3 0 -29 -5 -14 -16 -26 -25
-26 -8 0 -17 -12 -21 -27 -10 -49 -13 -53 -36 -53 -14 0 -18 -3 -11 -8 6 -4
-9 -8 -33 -9 -48 -2 -49 -1 -34 30 10 22 10 22 -6 0 -9 -13 -25 -23 -36 -23
-11 0 -72 18 -135 40 -64 22 -123 40 -132 39 -9 0 20 -12 64 -27 87 -29 96
-47 25 -47 -61 0 -130 -14 -130 -27 0 -6 14 -8 35 -4 33 7 36 5 52 -31 10 -21
23 -42 28 -46 6 -5 3 -7 -7 -4 -9 3 -29 2 -45 -3 -17 -5 -21 -9 -10 -9 25 -1
11 -21 -14 -21 -11 0 -17 5 -14 10 3 6 2 10 -4 10 -5 0 -12 -4 -16 -9 -8 -14
-86 23 -108 50 -33 40 -8 96 54 120 17 6 30 24 40 52 14 37 22 44 68 61 65 23
62 32 -4 10 -33 -12 -52 -26 -64 -46 -26 -47 -39 -63 -46 -57 -3 4 3 22 14 40
12 19 21 45 20 59 l-1 25 -8 -27 c-13 -45 -40 -82 -78 -109 -51 -36 -78 -44
-86 -23 -8 20 1 34 21 34 34 0 1 14 -35 14 -33 1 -37 4 -40 28 -2 19 -9 26
-22 25 -14 -1 -16 -4 -8 -14 7 -9 7 -13 -1 -13 -6 0 -14 7 -17 15 -4 8 -12 15
-20 15 -8 0 -28 15 -45 33 -18 17 -26 24 -19 14 20 -27 2 -34 -23 -9 -16 16
-18 22 -7 22 13 0 13 2 0 10 -8 5 -53 9 -100 9 -61 0 -79 -3 -65 -10 15 -7 12
-8 -15 -4 -22 3 -43 0 -54 -8 -16 -11 -7 -12 56 -5 l75 8 91 -45 c51 -25 92
-50 92 -56 0 -6 6 -9 14 -6 22 9 27 -20 11 -65 -13 -40 -13 -70 1 -34 5 14 9
15 15 4 16 -24 10 -48 -11 -48 -11 0 -20 6 -20 13 0 8 -3 9 -8 1 -12 -19 -47
-33 -75 -30 -27 3 -38 -9 -15 -16 17 -6 0 -28 -36 -44 l-31 -15 34 7 34 6 -29
-38 -28 -39 32 29 c25 23 32 26 32 13 0 -23 4 -22 38 13 17 17 37 30 46 30 21
0 31 -21 15 -31 -11 -7 -10 -9 5 -9 12 0 16 -5 12 -15 -5 -14 5 -19 31 -16 8
1 12 -8 11 -24 -3 -33 -36 -51 -105 -61 -55 -7 -61 -3 -74 50 -5 23 -7 26 -8
9 -1 -19 -6 -22 -31 -19 -44 5 -68 32 -76 82 -6 45 -28 60 -38 26 -7 -20 -61
-47 -76 -37 -14 8 -13 38 2 53 9 9 8 12 -6 12 -21 0 -11 18 18 31 18 8 17 9
-6 4 -23 -4 -28 -2 -28 15 0 12 -4 19 -9 16 -13 -9 -113 43 -133 68 -9 11 -20
18 -24 14 -4 -4 -1 -14 6 -23 25 -30 1 -27 -38 4 -51 39 -61 40 -28 0 33 -39
33 -46 -4 -54 -17 -4 -30 -11 -30 -17 0 -7 22 -9 65 -5 53 5 65 4 65 -8 0 -8
-5 -15 -12 -15 -6 0 -20 -8 -30 -17 -17 -15 -19 -15 -33 3 -12 16 -17 17 -34
7 -44 -27 -196 -5 -167 24 4 4 11 1 15 -6 5 -7 14 -12 20 -10 20 7 -77 97
-116 108 -21 6 -90 13 -153 16 l-115 4 120 -12 c156 -17 207 -47 170 -103 -20
-31 -21 -31 25 -38 42 -6 60 -27 53 -57 -6 -23 -3 -23 42 -2 l36 17 31 -33
c30 -32 31 -34 13 -47 -13 -10 -34 -12 -71 -8 -47 6 -55 4 -76 -18 -24 -25
-112 -58 -154 -58 -13 0 -28 -9 -34 -19 -6 -12 -29 -23 -61 -30 -28 -6 -60
-17 -72 -24 -12 -6 -40 -17 -62 -24 -22 -6 -33 -11 -24 -12 9 -1 38 6 65 14
61 18 76 19 44 0 -14 -8 -20 -14 -15 -14 6 0 21 6 35 14 14 8 40 14 58 15 19
0 35 6 38 15 4 8 17 15 30 15 19 0 24 -5 24 -24 0 -14 -4 -28 -10 -31 -5 -3
-10 -23 -9 -43 l1 -37 7 31 c11 43 19 54 42 54 13 0 24 10 30 28 10 29 91 78
110 67 13 -9 11 -39 -3 -53 -9 -9 -7 -12 11 -12 l23 0 -21 -33 c-17 -27 -19
-41 -12 -82 7 -38 9 -42 10 -19 1 44 45 139 73 158 52 36 64 6 22 -55 -24 -36
-25 -38 -9 -68 8 -17 20 -31 25 -31 6 0 10 -11 10 -25 0 -14 4 -25 9 -25 5 0
7 -17 4 -39 -4 -25 -1 -41 7 -46 10 -6 12 8 7 67 -4 63 -2 80 14 104 10 16 19
39 19 51 0 17 8 24 34 29 19 3 39 3 44 0 16 -10 24 -76 11 -92 -8 -9 -8 -14
-1 -14 6 0 9 -8 6 -17 -3 -10 8 7 24 37 35 64 57 87 92 92 23 3 25 0 23 -33
-2 -29 2 -38 18 -42 10 -3 17 -1 14 4 -6 9 11 43 36 72 16 18 18 16 34 -35 10
-29 22 -58 26 -64 6 -7 4 -22 -5 -38 -12 -23 -11 -35 3 -89 9 -34 24 -68 34
-76 11 -7 15 -16 10 -20 -16 -11 -29 -76 -22 -106 19 -71 38 -129 38 -114 1
15 41 59 54 59 4 0 5 -12 2 -27 l-5 -28 11 28 c7 19 18 27 34 27 13 0 32 3 42
7 17 7 17 6 1 -11 -23 -23 -23 -29 2 -21 14 4 20 2 20 -9 0 -8 -10 -17 -22
-19 l-23 -4 23 -2 c18 -1 22 -7 22 -32 0 -23 -10 -40 -37 -65 -20 -19 -44 -34
-54 -34 -9 0 -23 -7 -30 -16 -12 -14 -14 -14 -20 3 -6 15 -8 14 -8 -7 -1 -17
-13 -32 -39 -50 -20 -13 -39 -25 -41 -27 -2 -1 1 -8 7 -16 14 -17 -5 -57 -34
-72 -11 -6 -19 -16 -16 -23 4 -13 -25 -28 -36 -18 -3 4 0 11 8 16 11 7 11 10
2 10 -7 0 -16 -10 -21 -22 -6 -17 -4 -25 8 -30 9 -4 2 -6 -17 -4 -17 2 -35 6
-39 9 -11 11 -25 8 -17 -4 3 -6 0 -15 -7 -21 -9 -6 1 -8 31 -6 31 2 45 -1 44
-10 -1 -6 -2 -21 -2 -32 -1 -11 -7 -20 -14 -20 -7 0 -25 -12 -40 -27 -16 -15
-28 -21 -28 -14 0 7 -6 11 -14 8 -7 -3 -29 5 -47 17 -19 13 -45 26 -59 30
l-25 7 23 -17 c34 -25 26 -34 -25 -28 -35 4 -44 3 -33 -5 19 -13 4 -29 -37
-37 -29 -6 -32 -4 -36 22 -4 29 -4 29 -6 -3 -1 -40 -16 -50 -31 -23 -9 16 -8
25 1 36 6 8 9 27 5 44 -5 25 -2 30 14 30 14 0 20 -7 21 -22 1 -21 2 -21 6 -3
3 11 10 23 17 27 8 6 7 8 -1 8 -7 0 -13 7 -13 17 0 14 12 15 107 10 62 -4 102
-2 94 3 -11 6 -9 9 10 13 13 3 -25 4 -86 3 l-110 -1 -3 75 c-3 74 -2 76 28 98
16 12 30 31 30 42 0 11 4 20 10 20 5 0 7 6 4 13 -3 8 0 26 6 41 10 28 -4 56
-30 56 -6 0 -15 11 -22 25 -9 19 -8 29 6 49 21 33 21 48 0 17 -15 -21 -18 -22
-26 -7 -5 9 -6 25 -3 36 4 11 2 20 -4 20 -6 0 -11 14 -11 31 0 16 -4 28 -9 25
-5 -3 -16 4 -24 17 -8 13 -32 31 -53 40 -22 10 -47 31 -56 47 -21 36 -54 56
-61 35 -4 -9 13 -30 44 -55 43 -37 49 -46 49 -81 0 -24 8 -51 20 -67 28 -37
18 -56 -41 -80 -39 -17 -49 -26 -49 -44 0 -25 -52 -64 -70 -53 -6 3 -10 1 -10
-5 0 -6 -15 0 -33 14 -19 15 -46 26 -60 26 -17 0 -27 5 -27 14 0 13 -5 13 -36
0 -20 -8 -44 -12 -53 -8 -9 4 -22 8 -30 10 -8 1 -17 6 -20 11 -5 7 -37 11
-121 14 -14 1 -47 -6 -75 -14 l-50 -16 36 0 c36 -1 37 -3 47 -48 10 -43 11
-45 10 -13 0 74 -3 71 51 66 55 -6 115 -27 126 -47 15 -23 13 -162 -2 -188
-10 -15 -12 -26 -5 -33 7 -7 12 0 17 20 3 17 13 33 21 36 8 3 14 19 14 40 0
25 6 38 25 50 15 10 25 12 25 6 0 -6 4 -8 10 -5 5 3 10 18 10 32 0 22 3 24 27
18 44 -10 71 -41 65 -73 -6 -33 -33 -61 -94 -96 -49 -28 -53 -34 -62 -101 -4
-28 -3 -34 4 -20 5 11 9 33 9 48 1 17 8 30 19 34 9 4 28 15 41 25 28 21 67 26
41 5 -9 -7 -16 -33 -18 -63 l-4 -51 36 -7 c40 -8 42 -11 21 -33 -10 -10 -24
-13 -40 -9 -30 8 -31 3 -4 -23 25 -23 18 -61 -11 -61 -23 0 -35 -16 -18 -24 8
-3 -1 -18 -27 -40 -38 -34 -35 -48 6 -26 15 8 19 7 19 -5 0 -8 6 -15 13 -15
19 0 47 -37 47 -63 0 -22 39 -141 54 -165 4 -7 5 -29 1 -49 -3 -20 -3 -75 1
-122 l8 -86 8 77 c7 78 20 118 38 118 6 0 10 -43 10 -100 0 -76 5 -116 21
-163 15 -45 20 -77 16 -117 -3 -34 -2 -47 3 -35 15 35 11 100 -11 161 -46 133
5 395 67 344 8 -8 14 -31 15 -59 0 -50 17 -107 18 -64 1 12 10 42 20 65 11 24
26 63 33 88 14 49 8 47 127 57 l63 5 -18 -32 c-21 -35 -19 -37 46 -81 l24 -16
-27 -65 c-26 -60 -27 -68 -16 -114 6 -27 11 -76 10 -109 l-1 -59 30 59 c16 33
30 78 31 100 1 33 2 36 8 15 8 -30 16 -19 25 35 12 68 16 76 39 73 30 -4 37
-16 37 -63 1 -32 3 -37 11 -22 6 9 7 26 4 37 -6 20 12 96 28 117 13 17 43 0
67 -39 14 -23 16 -37 9 -61 -11 -39 -11 -71 0 -43 5 13 10 16 15 8 4 -6 3 -20
-2 -29 -13 -26 -24 -122 -12 -103 5 8 10 32 10 53 0 20 5 37 10 37 6 0 10 18
10 40 0 22 2 40 5 40 13 0 65 -62 65 -77 0 -10 15 -32 33 -51 30 -31 32 -38
32 -105 1 -40 5 -85 9 -101 7 -24 5 -33 -10 -45 -23 -19 -60 -110 -69 -168 -8
-53 -1 -56 15 -5 7 20 23 53 36 72 71 106 69 325 -4 376 -24 16 -19 49 6 39
12 -5 14 5 10 64 -4 52 -2 71 8 75 7 3 15 0 18 -7 3 -7 3 36 0 95 -3 65 -1
108 5 112 5 4 12 -4 14 -16 3 -14 5 -7 6 17 2 50 51 114 69 92 17 -21 42 -84
42 -107 0 -12 12 -31 26 -44 26 -22 27 -23 9 -50 -22 -33 -12 -46 16 -21 25
24 47 13 71 -36 14 -26 18 -29 18 -13 0 11 -11 31 -25 44 -24 23 -35 47 -15
35 6 -3 10 3 10 14 0 11 -5 23 -10 26 -37 23 -69 154 -34 141 11 -4 14 -1 9
13 -4 15 -25 126 -25 139 0 1 9 -2 19 -7 14 -8 20 -7 25 4 4 11 22 15 63 16
47 0 53 2 34 10 -25 10 -25 11 24 68 l20 25 -30 -21 c-16 -11 -50 -30 -74 -43
l-44 -22 8 48 c6 43 26 73 48 74 14 0 -6 54 -30 80 -26 28 -26 29 -14 49 8 12
12 12 24 2 23 -18 30 2 17 50 -13 46 -13 45 32 67 25 13 36 28 48 64 8 26 20
47 25 46 17 -2 83 31 87 44 2 6 22 17 44 24 27 8 32 12 17 13 -17 1 -23 7 -24
24 l-1 22 -6 -23 c-8 -27 -58 -62 -90 -62 -13 0 -58 -12 -100 -26 -72 -24 -77
-24 -89 -8 -7 10 -13 29 -13 42 0 21 -2 22 -15 12 -12 -10 -15 -9 -15 4 0 10
7 24 15 32 8 9 15 27 15 40 0 22 3 23 20 14 19 -10 20 -8 20 33 0 33 6 48 23
63 30 25 57 29 57 9 0 -9 -4 -13 -10 -10 -5 3 -10 1 -10 -4 0 -6 6 -11 14 -11
17 0 26 -21 27 -63 l1 -32 8 28 c5 17 5 40 -1 55 -6 15 -7 23 -3 20 4 -4 21 4
37 18 l31 26 18 -22 c10 -12 19 -36 19 -54 l1 -31 7 35 c4 20 11 41 15 48 11
18 36 14 36 -5 0 -15 2 -16 10 -3 8 12 14 10 39 -14 42 -40 48 -81 23 -158
-11 -34 -19 -64 -18 -66 11 -10 47 106 44 139 -4 46 2 48 34 11 13 -15 31 -31
41 -35 25 -9 57 -68 54 -97 -3 -21 -14 -29 -68 -47 -40 -14 -55 -22 -39 -23
20 0 22 -2 10 -10 -8 -5 -10 -10 -5 -10 6 0 20 7 32 15 38 27 50 10 61 -78 l9
-82 2 63 c1 46 5 64 16 68 12 5 13 10 4 20 -15 18 -1 37 23 30 11 -2 32 3 45
12 l25 16 -7 -35 c-4 -18 -16 -43 -26 -55 -12 -13 -17 -28 -13 -38 4 -10 -1
-24 -10 -35 -9 -10 -27 -46 -40 -80 l-25 -61 30 17 c30 18 30 18 49 -7 11 -14
20 -30 20 -37 0 -15 -48 -53 -69 -53 -14 0 -14 -2 -1 -10 12 -7 10 -11 -9 -18
-20 -7 -21 -10 -8 -15 10 -4 17 -17 17 -31 0 -20 4 -24 18 -19 9 4 19 10 22
13 3 4 20 12 39 18 44 15 54 3 47 -58 -4 -39 -3 -42 6 -20 9 20 12 21 15 8 2
-9 -5 -35 -17 -58 -11 -22 -29 -74 -39 -114 -22 -86 -80 -181 -130 -210 -19
-11 -31 -15 -27 -8 4 7 2 12 -5 12 -7 0 -9 -10 -6 -30 5 -22 2 -32 -11 -39 -9
-6 -14 -11 -9 -11 4 0 0 -12 -10 -27 l-17 -28 27 24 c15 14 27 20 27 15 0 -5
12 10 25 33 21 34 101 103 121 103 3 0 4 -10 2 -22 -2 -13 3 -28 10 -33 9 -7
11 -20 6 -39 l-7 -29 -18 24 c-20 26 -25 19 -8 -12 8 -16 7 -25 -5 -38 -9 -10
-16 -29 -16 -44 0 -36 -17 -43 -44 -18 -21 20 -24 20 -30 6 -3 -9 -6 -28 -6
-41 0 -13 -6 -24 -13 -24 -15 0 -69 -55 -86 -87 -6 -12 -11 -31 -11 -41 0 -11
-11 -44 -25 -74 -14 -29 -25 -67 -25 -85 0 -18 -7 -36 -15 -40 -13 -8 -13 -14
4 -48 10 -22 22 -55 26 -72 10 -51 28 -41 19 10 -12 58 -7 186 7 197 4 3 16
24 28 48 12 23 25 42 29 42 21 0 42 -150 44 -300 l1 -155 8 170 c12 267 11
264 62 336 24 35 48 64 53 63 19 -2 44 -71 44 -119 0 -28 -9 -74 -19 -103 -15
-41 -17 -60 -10 -87 6 -20 7 -45 4 -55 -5 -15 -3 -18 9 -14 11 4 17 -3 22 -23
4 -15 11 -30 15 -33 5 -3 9 -44 11 -90 1 -47 4 -77 6 -67 7 36 22 15 22 -32 0
-32 5 -53 16 -62 12 -10 15 -26 12 -72 -3 -43 -1 -60 9 -64 10 -4 13 -37 15
-132 0 -82 3 -110 7 -81 4 25 5 113 2 195 -3 133 -6 152 -23 163 -13 10 -19
26 -19 55 -1 123 -5 184 -13 200 -12 25 0 176 15 194 10 11 7 24 -11 62 -18
40 -20 52 -10 71 8 15 8 20 1 16 -7 -5 -11 2 -11 18 0 32 20 45 21 14 1 -18 3
-17 8 8 12 49 19 56 44 43 18 -9 20 -9 10 2 -13 13 -19 38 -7 26 3 -3 17 5 31
19 13 13 32 24 41 24 9 0 23 9 30 20 11 18 10 20 -18 20 -17 0 -30 5 -30 13
-1 7 -6 5 -14 -5 -20 -27 -26 -22 -26 22 0 23 5 40 11 40 8 0 10 12 6 35 -3
21 -2 33 4 30 5 -4 9 -2 9 4 0 5 -4 13 -10 16 -15 10 -12 23 8 28 16 4 16 5 0
6 -24 1 -22 23 7 81 14 28 21 50 15 50 -6 0 -10 27 -10 62 0 59 1 60 18 45 10
-10 27 -17 37 -17 16 0 17 -8 13 -97 -3 -54 -2 -89 3 -78 4 11 8 37 8 57 1 20
6 40 12 44 9 5 11 -11 6 -61 -5 -72 18 -179 34 -154 4 7 1 22 -7 35 -12 17
-15 53 -13 156 2 168 -2 182 -51 198 -30 10 -39 19 -44 43 -11 54 -6 140 10
199 13 47 15 67 6 96 -16 55 6 135 23 82 4 -12 15 -20 28 -20 39 0 51 -16 50
-62 0 -24 1 -32 4 -18 9 52 11 54 49 25 19 -15 37 -25 39 -23 7 7 -10 23 -38
36 -15 6 -36 25 -45 42 -9 16 -23 30 -30 30 -7 0 -15 6 -18 14 -3 8 -14 16
-24 19 -17 4 -70 99 -70 125 0 6 -6 15 -12 19 -15 9 -38 48 -38 63 0 6 5 8 10
5 6 -3 10 1 10 9 0 9 7 16 15 16 21 0 19 14 -6 36 -12 10 -28 32 -36 49 -9 16
-24 40 -35 52 -27 29 -17 85 20 122 l26 26 7 -38 c8 -51 19 -58 12 -8 -4 27
-2 41 5 41 6 0 9 7 6 15 -4 9 0 15 10 15 9 0 16 5 16 11 0 5 -3 8 -7 6 -14 -8
-53 12 -53 27 0 7 -7 16 -15 20 -22 8 -18 26 6 26 13 0 18 -4 13 -12 -4 -7 -3
-8 4 -4 23 14 12 28 -18 24 -25 -4 -36 1 -60 28 -28 33 -29 34 -13 74 13 31
21 40 40 40 16 0 27 -7 30 -20 3 -11 9 -20 14 -20 5 0 6 7 2 17 -5 14 -1 15
27 9 18 -3 34 -7 34 -9 1 -1 19 -37 41 -79 23 -45 43 -72 47 -65 4 6 10 8 15
4 4 -4 3 -16 -3 -25 -6 -9 -9 -36 -6 -60 3 -35 7 -42 22 -37 12 4 26 -5 44
-25 14 -18 26 -35 27 -38 0 -4 3 -16 6 -27 5 -21 21 -155 22 -191 1 -31 28
-26 28 5 -1 14 2 46 5 71 3 25 3 35 1 23 -7 -36 -23 -27 -23 13 0 23 4 33 11
28 8 -4 9 1 4 17 -8 26 -8 26 -6 52 1 11 6 15 12 11 13 -7 9 35 -6 70 -6 14
-5 17 4 11 10 -6 11 -3 2 12 -7 14 -7 48 -1 109 6 49 11 103 13 119 1 23 6 30
22 28 77 -7 85 -25 74 -158 -5 -55 -10 -127 -13 -160 l-5 -60 9 50 c5 28 12
79 15 115 3 36 11 85 17 109 6 23 12 61 12 84 1 35 5 42 29 50 21 7 36 4 67
-12 22 -12 58 -30 80 -42 32 -17 41 -28 46 -57 3 -21 10 -53 14 -72 l8 -35 2
35 c1 28 3 31 10 15 4 -12 6 14 4 61 l-5 81 33 7 c35 7 48 -4 48 -41 0 -38 17
-25 24 18 6 35 9 39 21 29 8 -7 15 -21 15 -32 0 -30 19 -58 39 -58 11 0 33
-22 55 -52 20 -29 36 -48 36 -42 0 19 -43 89 -66 109 -18 15 -24 32 -26 69 -3
45 -5 50 -35 60 -60 20 -59 31 6 53 58 19 61 19 81 1 12 -10 10 -7 -4 8 -23
26 -24 26 -56 9 -53 -27 -180 -22 -180 7 0 6 -7 19 -16 29 -13 15 -20 16 -41
6 -18 -8 -26 -8 -32 1 -5 8 -18 4 -43 -13 -44 -30 -48 -30 -48 -8 0 13 -6 11
-29 -11 l-28 -27 -59 17 c-73 20 -80 24 -63 35 10 6 8 9 -9 9 -14 0 -21 4 -16
11 4 7 21 9 43 5 44 -7 124 22 116 42 -3 8 0 12 7 9 7 -2 12 -9 11 -15 -1 -5
7 -18 18 -28 15 -13 22 -15 31 -6 7 7 27 12 44 12 18 0 36 5 40 11 5 8 -8 9
-42 5 l-49 -7 -19 41 c-11 22 -20 40 -22 40 -2 0 -17 -13 -34 -29 -30 -27 -36
-29 -92 -24 -64 6 -150 -14 -126 -29 8 -5 9 -8 2 -8 -6 0 -17 7 -24 15 -7 8
-17 12 -24 8 -27 -17 -38 -12 -32 15 6 25 4 24 -33 -15 -45 -48 -77 -59 -150
-55 -19 2 -21 5 -12 16 8 9 9 16 2 21 -6 3 -23 33 -38 65 -18 41 -33 60 -45
60 -10 0 -18 7 -18 15 0 8 3 15 8 15 4 0 27 16 52 36 43 35 40 38 -17 17 -8
-3 -13 3 -13 13 0 15 -2 16 -9 5 -16 -25 -41 -4 -41 34 0 19 4 35 8 35 9 0
-16 83 -31 108 -5 6 -5 17 -2 23 11 18 -4 59 -22 59 -10 0 -36 19 -60 42 -24
24 -53 42 -70 44 -22 3 -18 -2 24 -26z m123 -96 c0 -8 -4 -12 -10 -9 -5 3 -10
13 -10 21 0 8 5 12 10 9 6 -3 10 -13 10 -21z m90 -355 c0 -6 -4 -7 -10 -4 -5
3 -10 11 -10 16 0 6 5 7 10 4 6 -3 10 -11 10 -16z m-184 -126 c-11 -11 -19 6
-11 24 8 17 8 17 12 0 3 -10 2 -21 -1 -24z m-561 7 c-3 -5 -11 -10 -16 -10 -6
0 -7 5 -4 10 3 6 11 10 16 10 6 0 7 -4 4 -10z m-167 -50 c-2 -7 -10 1 -17 16
-12 27 -11 28 4 12 10 -9 16 -21 13 -28z m1202 25 c0 -8 -7 -15 -16 -15 -14 0
-14 3 -4 15 7 8 14 15 16 15 2 0 4 -7 4 -15z m-242 -23 c10 -10 24 -16 30 -14
7 2 12 -1 12 -8 0 -6 -8 -10 -17 -9 -10 2 -28 -2 -40 -9 -13 -7 -24 -8 -27 -3
-4 5 0 12 6 14 8 3 6 6 -4 6 -11 1 -18 9 -18 21 0 26 33 27 58 2z m39 12 c-3
-3 -12 -4 -19 -1 -8 3 -5 6 6 6 11 1 17 -2 13 -5z m268 -34 c3 -5 -1 -10 -9
-10 -8 0 -18 5 -21 10 -3 6 1 10 9 10 8 0 18 -4 21 -10z m437 -67 c-23 -21
-24 -21 -43 -2 -10 10 -30 19 -44 19 -45 0 -29 25 30 45 26 9 33 8 55 -15 l25
-25 -23 -22z m-1302 63 c0 -11 -19 -15 -25 -6 -3 5 1 10 9 10 9 0 16 -2 16 -4z
m895 -26 c3 -5 2 -10 -4 -10 -5 0 -13 5 -16 10 -3 6 -2 10 4 10 5 0 13 -4 16
-10z m-935 -10 c0 -5 -2 -10 -4 -10 -3 0 -8 5 -11 10 -3 6 -1 10 4 10 6 0 11
-4 11 -10z m-308 -42 c-7 -7 -12 -8 -12 -2 0 14 12 26 19 19 2 -3 -1 -11 -7
-17z m-716 -15 c-10 -10 -19 5 -10 18 6 11 8 11 12 0 2 -7 1 -15 -2 -18z m94
21 c0 -8 -32 -33 -43 -34 -4 0 -3 9 3 20 10 18 40 29 40 14z m1150 -10 c0 -2
-7 -4 -15 -4 -8 0 -15 4 -15 10 0 5 7 7 15 4 8 -4 15 -8 15 -10z m628 -40 c33
-27 29 -32 -28 -36 -34 -2 -44 0 -42 11 2 7 -5 22 -14 32 -40 45 26 39 84 -7z
m222 26 c0 -5 -5 -10 -11 -10 -5 0 -7 5 -4 10 3 6 8 10 11 10 2 0 4 -4 4 -10z
m-781 -26 c3 -2 -5 -18 -17 -34 -12 -16 -22 -37 -22 -46 0 -16 1 -16 19 0 18
17 21 15 60 -25 23 -24 41 -49 41 -56 0 -30 -45 -103 -69 -113 -14 -5 -34 -15
-43 -22 -25 -18 -51 10 -78 85 -12 34 -28 69 -35 77 -7 8 -16 35 -20 59 -7 41
-5 47 21 68 26 21 36 23 84 18 30 -4 57 -9 59 -11z m471 -5 c0 -4 -7 -6 -15
-3 -8 4 -15 10 -15 15 0 4 7 6 15 3 8 -4 15 -10 15 -15z m770 -50 c0 -5 -4 -9
-10 -9 -5 0 -10 7 -10 16 0 8 5 12 10 9 6 -3 10 -10 10 -16z m-1437 -77 c40
-54 70 -146 70 -212 0 -25 2 -37 4 -27 3 9 9 17 14 17 5 0 9 -8 9 -17 0 -10 7
-27 15 -37 8 -11 15 -29 16 -40 0 -19 1 -18 11 4 6 14 10 41 9 60 l-2 35 22
-30 c12 -17 18 -22 14 -10 -4 11 -9 28 -12 37 -7 24 48 50 99 46 39 -3 42 -6
56 -46 7 -23 11 -49 8 -58 -5 -13 -9 -13 -36 1 -32 16 -41 7 -14 -16 14 -11
14 -13 0 -21 -9 -5 -16 -18 -16 -28 0 -25 -8 -25 -35 -2 -12 9 -7 3 11 -15 18
-17 30 -34 26 -37 -3 -3 13 -6 34 -6 22 0 48 -6 58 -13 16 -12 17 -16 3 -48
-8 -19 -24 -43 -36 -54 -19 -16 -24 -17 -31 -5 -5 8 -7 24 -4 35 4 15 3 16 -4
6 -13 -18 -29 -7 -51 38 -14 26 -35 45 -68 62 -36 19 -51 34 -60 60 -7 19 -12
26 -12 15 -1 -15 -4 -16 -16 -6 -8 7 -15 20 -16 29 0 10 -2 11 -6 4 -7 -18
-23 -16 -71 7 -22 11 -59 20 -82 20 -22 0 -40 5 -40 10 0 6 -7 10 -15 10 -8 0
-15 6 -15 14 0 18 43 33 48 18 2 -8 8 -8 21 0 14 9 16 19 10 71 -6 52 -4 68
18 118 14 33 27 59 28 59 2 0 19 -21 38 -48z m847 27 c0 -11 -4 -18 -10 -14
-5 3 -7 12 -3 20 7 21 13 19 13 -6z m-1770 -29 c33 0 41 -24 18 -49 -11 -11
-9 -12 7 -3 15 7 25 7 39 -3 17 -13 17 -14 -7 -20 -15 -4 -32 -5 -39 -3 -7 3
-25 1 -40 -3 -24 -7 -29 -4 -34 16 -3 13 -3 28 0 34 4 5 -3 15 -14 21 -17 9
-18 14 -9 31 l11 21 19 -21 c12 -12 32 -21 49 -21z m850 10 c-6 -12 -14 -19
-17 -17 -2 3 1 15 7 27 6 12 14 19 17 17 2 -3 -1 -15 -7 -27z m869 -33 c14
-81 14 -144 0 -153 -6 -3 -23 6 -39 21 -20 19 -29 23 -33 13 -4 -7 -4 12 -2
42 2 30 4 70 4 88 1 30 20 48 52 51 4 1 12 -27 18 -62z m-979 15 l0 -26 -22
22 c-19 19 -21 24 -8 32 20 12 30 3 30 -28z m-16 -27 c6 -11 15 -23 21 -27 6
-5 6 -11 -2 -19 -7 -7 -9 -24 -6 -40 4 -19 1 -29 -7 -29 -7 0 -10 7 -5 18 5
14 4 15 -6 5 -15 -15 -63 -18 -54 -3 3 5 0 18 -7 29 -10 16 -9 26 5 56 19 40
42 44 61 10z m-179 5 c3 -5 -1 -10 -9 -10 -9 0 -16 -8 -16 -19 0 -25 -56 -95
-65 -81 -4 6 -1 17 5 25 7 8 9 22 6 31 -8 21 11 44 35 44 11 0 19 5 19 10 0 6
4 10 9 10 6 0 13 -4 16 -10z m697 -75 c0 -25 2 -23 12 15 14 53 32 60 70 25
15 -14 34 -25 42 -25 29 0 12 -21 -33 -42 -47 -20 -135 -33 -161 -23 -10 4 -9
13 7 42 11 21 26 52 32 68 l12 30 9 -30 c5 -16 10 -43 10 -60z m134 47 c-4 -3
-14 2 -24 12 -16 18 -16 18 6 6 13 -6 21 -14 18 -18z m-1474 3 c16 -21 7 -43
-19 -49 -29 -8 -43 5 -43 41 0 19 5 22 28 21 15 -1 30 -7 34 -13z m922 -51 c7
-19 -1 -34 -18 -34 -9 0 -12 9 -8 25 5 28 17 33 26 9z m-841 -26 c-8 -47 -20
-55 -28 -19 -7 34 -1 51 20 51 11 0 13 -8 8 -32z m347 -13 c22 14 8 -13 -20
-38 -29 -27 -55 -38 -32 -15 7 7 12 25 12 41 0 25 2 27 15 17 8 -6 19 -9 25
-5z m70 -6 c0 -5 -4 -9 -10 -9 -5 0 -10 7 -10 16 0 8 5 12 10 9 6 -3 10 -10
10 -16z m-146 -5 c9 -24 7 -107 -4 -124 -7 -11 -10 -5 -10 25 0 22 -3 57 -6
78 -7 37 8 53 20 21z m576 -9 c0 -8 -9 -15 -19 -15 -24 0 -36 16 -19 23 24 10
38 7 38 -8z m-440 -10 c10 -12 9 -16 -4 -21 -16 -6 -50 -64 -37 -64 4 0 18 11
31 25 26 28 50 33 50 10 0 -8 7 -15 15 -15 12 0 15 -8 11 -32 -3 -18 -1 -60 4
-93 l9 -60 -4 70 c-4 73 8 105 38 105 21 0 37 -31 37 -72 0 -41 6 -110 11
-123 6 -18 -51 -97 -67 -91 -8 3 -14 0 -14 -6 0 -9 -3 -9 -12 0 -17 17 -26 15
-33 -8 -5 -16 -15 -20 -48 -20 -24 0 -56 -9 -75 -20 -18 -11 -34 -20 -37 -20
-11 0 -17 75 -6 91 17 28 13 82 -9 140 -12 28 -19 57 -16 63 2 6 5 2 5 -9 2
-23 41 57 41 83 0 19 64 82 83 82 8 0 20 -7 27 -15z m910 -19 c0 -16 -18 -31
-27 -22 -8 8 5 36 17 36 5 0 10 -6 10 -14z m-1070 -70 c0 -14 -4 -28 -10 -31
-6 -4 -10 7 -10 24 0 17 5 31 10 31 6 0 10 -11 10 -24z m1090 -12 c0 -8 -5
-12 -10 -9 -6 4 -8 11 -5 16 9 14 15 11 15 -7z m120 -34 c0 -5 -2 -10 -4 -10
-3 0 -8 5 -11 10 -3 6 -1 10 4 10 6 0 11 -4 11 -10z m-1805 -60 c3 -5 2 -10
-4 -10 -5 0 -13 5 -16 10 -3 6 -2 10 4 10 5 0 13 -4 16 -10z m1511 -67 c-7 -7
-26 7 -26 19 0 6 6 6 15 -2 9 -7 13 -15 11 -17z m-1398 -44 c2 -23 2 -23 -13
-5 -18 24 -20 39 -2 34 6 -3 13 -15 15 -29z m1705 -21 c-9 -21 -10 -20 -11 11
0 25 2 31 10 23 8 -8 8 -18 1 -34z m-1003 -74 c0 -14 -4 -23 -10 -19 -5 3 -10
15 -10 26 0 10 5 19 10 19 6 0 10 -12 10 -26z m140 1 c0 -8 -7 -15 -15 -15
-16 0 -20 12 -8 23 11 12 23 8 23 -8z m-869 -89 c-18 -17 -23 -18 -30 -7 -12
19 -28 6 -36 -29 -4 -17 -11 -30 -17 -30 -6 0 -8 10 -4 23 3 12 6 27 6 34 0
12 37 28 56 25 6 -1 17 5 25 14 9 11 14 13 17 4 3 -7 -5 -22 -17 -34z m1089
26 c0 -9 -25 -33 -47 -46 -9 -5 -13 0 -13 14 0 16 4 20 15 16 9 -3 18 1 21 9
7 16 24 21 24 7z m676 -3 c4 -7 8 -26 9 -44 1 -17 12 -46 26 -64 15 -21 23
-45 23 -69 0 -46 -43 -164 -57 -159 -20 6 -48 53 -50 82 -2 25 1 29 18 27 19
-4 19 -3 -2 18 -20 18 -23 31 -23 101 0 44 5 89 10 100 12 21 35 25 46 8z
m-936 -91 c22 -36 23 -95 3 -90 -9 1 -13 -12 -13 -41 0 -52 -32 -89 -80 -92
-35 -3 -61 24 -53 56 3 10 0 19 -6 19 -6 0 -11 17 -11 40 0 36 5 44 61 90 33
27 64 50 70 50 5 0 18 -15 29 -32z m-750 2 c0 -10 -31 -23 -38 -15 -8 7 19 35
29 29 5 -3 9 -9 9 -14z m34 -26 c12 -31 5 -61 -19 -84 -21 -20 -25 -33 -27
-97 l-3 -74 -37 34 c-32 29 -38 41 -37 73 0 57 21 109 42 108 10 -1 17 5 17
17 0 32 53 52 64 23z m1586 -16 c0 -23 -3 -29 -11 -21 -6 6 -8 20 -4 32 9 30
15 26 15 -11z m-2093 -20 c-3 -7 -5 -2 -5 12 0 14 2 19 5 13 2 -7 2 -19 0 -25z
m433 22 c0 -5 -5 -10 -11 -10 -5 0 -7 5 -4 10 3 6 8 10 11 10 2 0 4 -4 4 -10z
m1520 -29 c0 -22 -16 -36 -24 -22 -8 12 3 41 15 41 5 0 9 -9 9 -19z m-935 -11
c3 -5 -1 -10 -10 -10 -9 0 -13 5 -10 10 3 6 8 10 10 10 2 0 7 -4 10 -10z m35
-24 c0 -18 -7 -39 -15 -46 -17 -14 -20 -46 -5 -55 6 -3 10 -1 10 6 0 7 14 0
30 -16 17 -16 30 -32 30 -37 0 -5 -16 -16 -35 -25 -35 -17 -51 -42 -17 -28 9
4 27 10 39 12 13 3 20 10 16 17 -4 7 -2 7 7 -1 7 -6 15 -34 18 -62 4 -48 3
-50 -24 -57 -15 -4 -41 -2 -57 4 -33 13 -49 8 -41 -11 6 -18 -69 -16 -90 2
-14 12 -16 11 -16 -8 0 -13 -7 -21 -17 -22 -14 0 -12 -3 5 -10 19 -7 22 -14
16 -31 -4 -13 -9 -25 -13 -28 -3 -3 -13 -18 -21 -35 -8 -16 -24 -40 -36 -51
l-22 -21 -12 22 c-7 13 -10 28 -6 33 3 6 -7 13 -24 17 -24 5 -30 12 -30 33 0
25 75 162 89 162 4 0 12 20 19 43 20 65 48 107 74 108 17 1 19 2 6 6 -10 2
-18 8 -18 13 0 11 39 57 40 47 0 -5 7 -1 16 7 8 9 24 16 35 16 11 0 22 7 25
15 11 27 24 16 24 -19z m928 -24 c7 -5 10 -16 6 -27 -7 -17 -8 -17 -21 1 -22
30 -14 44 15 26z m-1626 -107 c6 -14 8 -28 5 -31 -10 -11 -37 17 -37 37 0 27
18 23 32 -6z m-152 8 c0 -17 -19 -35 -29 -29 -18 12 -12 36 9 36 11 0 20 -3
20 -7z m190 -59 c0 -8 -4 -12 -10 -9 -5 3 -10 10 -10 16 0 5 5 9 10 9 6 0 10
-7 10 -16z m-230 -4 c0 -5 -4 -10 -10 -10 -5 0 -10 5 -10 10 0 6 5 10 10 10 6
0 10 -4 10 -10z m261 -3 c-1 -12 -15 -9 -19 4 -3 6 1 10 8 8 6 -3 11 -8 11
-12z m419 3 c0 -5 -5 -10 -11 -10 -5 0 -7 5 -4 10 3 6 8 10 11 10 2 0 4 -4 4
-10z m446 -56 c-3 -8 -10 -14 -16 -14 -17 0 -23 29 -9 46 11 14 13 14 22 -1 5
-9 6 -23 3 -31z m144 11 c-7 -8 -20 -15 -29 -15 -12 1 -11 5 8 21 26 22 41 18
21 -6z m-1005 5 c3 -5 2 -10 -4 -10 -5 0 -13 5 -16 10 -3 6 -2 10 4 10 5 0 13
-4 16 -10z m-45 -44 c0 -44 -14 -53 -29 -20 -16 37 -14 54 9 54 16 0 20 -7 20
-34z m21 -49 c-8 -8 -11 -5 -11 9 0 27 14 41 18 19 2 -9 -1 -22 -7 -28z m258
-8 c13 -11 20 -23 16 -27 -4 -4 -10 -1 -12 6 -3 6 -10 12 -18 12 -7 0 -18 7
-25 15 -19 23 9 19 39 -6z m647 -14 c4 -14 4 -29 0 -32 -3 -4 -6 1 -6 10 0 10
-4 17 -10 17 -5 0 -10 7 -10 15 0 25 19 17 26 -10z m-346 -11 c0 -3 -5 -14
-10 -25 -8 -15 -7 -19 5 -19 8 0 15 -4 15 -10 0 -16 -22 -12 -36 8 -20 26 -17
52 6 52 11 0 20 -3 20 -6z m-429 -43 c-15 -27 -54 -48 -59 -32 -2 6 -10 11
-18 11 -27 0 -14 17 29 36 47 22 65 17 48 -15z m-401 -26 c0 -8 -7 -15 -15
-15 -16 0 -20 12 -8 23 11 12 23 8 23 -8z m200 -27 c0 -13 -23 -5 -28 10 -2 7
2 10 12 6 9 -3 16 -11 16 -16z m578 4 c2 -7 -6 -12 -17 -12 -21 0 -27 11 -14
24 9 9 26 2 31 -12z m1224 -17 c13 -28 6 -40 -17 -32 -17 7 -21 57 -5 57 6 0
16 -11 22 -25z m-1811 -6 c16 -8 18 -13 8 -25 -18 -22 -39 -17 -39 11 0 28 3
29 31 14z m-100 -31 c1 -31 1 -31 9 -8 8 29 15 18 25 -43 4 -27 3 -37 -4 -32
-15 8 -14 3 5 -44 15 -39 15 -42 -8 -82 l-23 -41 -7 53 c-4 30 -14 73 -22 97
-13 37 -14 76 0 120 7 24 24 11 25 -20z m689 11 c0 -11 -14 -34 -31 -51 -25
-25 -33 -29 -40 -17 -15 25 -10 57 13 73 32 23 58 20 58 -5z m-127 -9 c3 -11
1 -23 -4 -26 -5 -3 -9 6 -9 20 0 31 6 34 13 6z m323 -24 c3 -20 1 -43 -6 -57
-13 -23 -13 -23 -31 12 -23 43 -24 65 -2 78 24 13 31 6 39 -33z m181 2 c-3 -8
-6 -5 -6 6 -1 11 2 17 5 13 3 -3 4 -12 1 -19z m853 -7 c0 -24 -16 -36 -23 -19
-3 8 -6 6 -6 -5 -1 -25 -21 -11 -21 14 0 11 5 17 10 14 6 -3 10 -1 10 4 0 6 7
11 15 11 8 0 15 -9 15 -19z m-1820 -32 c0 -16 -4 -29 -10 -29 -5 0 -10 16 -10
36 0 21 4 33 10 29 6 -3 10 -19 10 -36z m23 6 c-7 -21 -13 -19 -13 6 0 11 4
18 10 14 5 -3 7 -12 3 -20z m272 15 c3 -5 -3 -10 -15 -10 -12 0 -18 5 -15 10
3 6 10 10 15 10 5 0 12 -4 15 -10z m63 -27 c14 -38 24 -103 16 -103 -10 0 -74
41 -74 48 0 11 35 81 41 82 4 0 11 -12 17 -27z m-286 -75 c-7 -7 -12 -8 -12
-2 0 14 12 26 19 19 2 -3 -1 -11 -7 -17z m533 -28 c3 -5 2 -10 -4 -10 -5 0
-13 5 -16 10 -3 6 -2 10 4 10 5 0 13 -4 16 -10z m138 -19 c-2 -12 4 -35 12
-51 19 -36 19 -67 1 -85 -19 -20 -26 0 -33 94 -5 61 -4 73 8 69 8 -3 13 -15
12 -27z m1067 -73 c4 -21 4 -38 0 -38 -16 0 -32 31 -27 50 3 11 1 18 -4 14
-11 -6 -12 7 -3 31 6 16 8 16 17 -1 6 -10 14 -35 17 -56z m-1409 -63 c-19 -59
-19 -60 -30 -32 -16 42 -14 58 17 102 26 38 27 39 30 15 1 -14 -6 -52 -17 -85z
m1250 22 l-21 -21 0 26 c0 31 33 57 38 31 2 -8 -5 -25 -17 -36z m-101 -181 c0
-30 -13 -76 -21 -76 -17 0 -30 50 -19 71 12 22 40 26 40 5z m184 -148 c12 -46
7 -146 -8 -151 -22 -9 -38 41 -26 83 5 19 10 47 10 62 0 34 15 37 24 6z m-940
-70 c-7 -25 -25 -51 -30 -45 -2 2 1 18 7 35 12 36 34 45 23 10z"/>
<path d="M2332 2880 c0 -19 2 -27 5 -17 2 9 2 25 0 35 -3 9 -5 1 -5 -18z"/>
<path d="M2392 2505 c9 -10 21 -16 28 -13 7 2 -1 10 -16 17 -27 12 -28 11 -12
-4z"/>
<path d="M1602 1915 c0 -16 2 -22 5 -12 2 9 2 23 0 30 -3 6 -5 -1 -5 -18z"/>
<path d="M1506 3288 c-10 -38 -6 -45 9 -18 17 29 18 40 6 40 -5 0 -11 -10 -15
-22z"/>
<path d="M1108 3253 c7 -3 16 -2 19 1 4 3 -2 6 -13 5 -11 0 -14 -3 -6 -6z"/>
<path d="M1153 3253 c9 -2 23 -2 30 0 6 3 -1 5 -18 5 -16 0 -22 -2 -12 -5z"/>
<path d="M984 3236 c11 -9 24 -16 30 -16 12 0 7 5 -24 19 -24 11 -24 11 -6 -3z"/>
<path d="M3718 3113 c7 -3 16 -2 19 1 4 3 -2 6 -13 5 -11 0 -14 -3 -6 -6z"/>
<path d="M1358 3103 c12 -2 30 -2 40 0 9 3 -1 5 -23 4 -22 0 -30 -2 -17 -4z"/>
<path d="M3443 2800 c0 -30 2 -43 4 -27 2 15 2 39 0 55 -2 15 -4 2 -4 -28z"/>
<path d="M721 2643 c0 -12 -4 -30 -7 -40 -5 -17 -5 -17 6 0 6 10 9 28 7 40 -4
22 -4 22 -6 0z"/>
<path d="M1181 2614 c0 -11 3 -14 6 -6 3 7 2 16 -1 19 -3 4 -6 -2 -5 -13z"/>
<path d="M1177 2491 c-4 -35 -5 -66 -3 -68 6 -7 19 103 14 119 -3 7 -8 -16
-11 -51z"/>
<path d="M2182 2435 c0 -16 2 -22 5 -12 2 9 2 23 0 30 -3 6 -5 -1 -5 -18z"/>
<path d="M1103 2375 c0 -27 2 -38 4 -22 2 15 2 37 0 50 -2 12 -4 0 -4 -28z"/>
<path d="M2102 2390 c0 -14 2 -19 5 -12 2 6 2 18 0 25 -3 6 -5 1 -5 -13z"/>
<path d="M2993 2383 c-9 -18 -8 -23 1 -23 7 0 18 11 23 23 8 18 8 24 -1 24 -7
0 -17 -11 -23 -24z"/>
<path d="M2255 2259 c-10 -22 -30 -47 -44 -55 -22 -12 -22 -14 -4 -9 17 5 22
1 26 -17 l4 -23 2 23 c1 15 12 28 34 38 31 14 31 15 5 11 -33 -5 -33 -5 -12
34 8 17 14 33 11 35 -2 2 -12 -14 -22 -37z"/>
<path d="M2318 2233 c7 -3 16 -2 19 1 4 3 -2 6 -13 5 -11 0 -14 -3 -6 -6z"/>
<path d="M760 2205 c0 -8 4 -15 10 -15 5 0 7 7 4 15 -4 8 -8 15 -10 15 -2 0
-4 -7 -4 -15z"/>
<path d="M1523 2175 c0 -22 2 -30 4 -17 2 12 2 30 0 40 -3 9 -5 -1 -4 -23z"/>
<path d="M2215 2100 c-4 -23 -5 -43 -2 -46 2 -3 7 14 11 37 4 23 5 44 2 46 -2
2 -7 -14 -11 -37z"/>
<path d="M2902 2020 c0 -19 2 -27 5 -17 2 9 2 25 0 35 -3 9 -5 1 -5 -18z"/>
<path d="M2892 1950 c0 -19 2 -27 5 -17 2 9 2 25 0 35 -3 9 -5 1 -5 -18z"/>
<path d="M532 1885 c-7 -14 -11 -54 -11 -88 l2 -62 7 60 c4 33 11 72 15 88 9
34 2 35 -13 2z"/>
<path d="M2400 1885 c-11 -13 -8 -15 16 -14 16 0 23 3 16 6 -6 2 -10 9 -6 14
9 15 -13 10 -26 -6z"/>
<path d="M2457 1754 c-2 -15 -1 -38 3 -53 7 -21 8 -16 9 27 1 56 -4 67 -12 26z"/>
<path d="M2452 1630 c0 -19 2 -27 5 -17 2 9 2 25 0 35 -3 9 -5 1 -5 -18z"/>
<path d="M2443 1550 c0 -25 2 -35 4 -22 2 12 2 32 0 45 -2 12 -4 2 -4 -23z"/>
<path d="M2521 1394 c0 -11 3 -14 6 -6 3 7 2 16 -1 19 -3 4 -6 -2 -5 -13z"/>
<path d="M2295 1310 c-10 -11 -16 -22 -14 -24 2 -2 12 7 22 20 22 29 17 32 -8
4z"/>
<path d="M2891 1314 c0 -11 3 -14 6 -6 3 7 2 16 -1 19 -3 4 -6 -2 -5 -13z"/>
<path d="M982 1230 c0 -19 2 -27 5 -17 2 9 2 25 0 35 -3 9 -5 1 -5 -18z"/>
<path d="M1398 1123 c-3 -38 -1 -77 3 -88 5 -12 8 15 8 68 1 48 -1 87 -3 87
-2 0 -6 -30 -8 -67z"/>
<path d="M988 1164 c-23 -45 -29 -95 -20 -184 l9 -95 2 78 c0 43 6 88 13 100
10 20 10 21 -5 8 -15 -12 -17 -11 -17 5 0 11 7 27 15 37 13 18 14 17 18 -5 4
-22 4 -22 5 2 1 30 -13 67 -20 54z"/>
<path d="M1512 1065 c0 -16 2 -22 5 -12 2 9 2 23 0 30 -3 6 -5 -1 -5 -18z"/>
<path d="M1228 1000 c-8 -27 10 -100 24 -100 4 0 9 -26 10 -57 l2 -58 3 55 c3
34 -1 67 -11 90 -8 19 -17 49 -18 65 -3 29 -3 30 -10 5z"/>
<path d="M1522 990 c0 -14 2 -19 5 -12 2 6 2 18 0 25 -3 6 -5 1 -5 -13z"/>
<path d="M971 864 c0 -11 3 -14 6 -6 3 7 2 16 -1 19 -3 4 -6 -2 -5 -13z"/>
<path d="M980 815 c0 -5 5 -17 10 -25 5 -8 10 -10 10 -5 0 6 -5 17 -10 25 -5
8 -10 11 -10 5z"/>
<path d="M2323 635 c0 -33 2 -45 4 -27 2 18 2 45 0 60 -2 15 -4 0 -4 -33z"/>
<path d="M1671 574 c0 -11 3 -14 6 -6 3 7 2 16 -1 19 -3 4 -6 -2 -5 -13z"/>
<path d="M2300 549 c-7 -11 -10 -23 -7 -25 2 -2 9 7 15 21 14 30 7 33 -8 4z"/>
<path d="M1662 490 c0 -19 2 -27 5 -17 2 9 2 25 0 35 -3 9 -5 1 -5 -18z"/>
<path d="M2613 480 c0 -25 2 -35 4 -22 2 12 2 32 0 45 -2 12 -4 2 -4 -23z"/>
<path d="M2290 464 c0 -10 5 -26 10 -34 8 -11 9 -7 4 15 -8 37 -14 45 -14 19z"/>
<path d="M1651 424 c0 -11 3 -14 6 -6 3 7 2 16 -1 19 -3 4 -6 -2 -5 -13z"/>
<path d="M1651 395 c0 -5 6 -21 14 -35 8 -14 14 -20 14 -15 0 6 -6 21 -14 35
-8 14 -14 21 -14 15z"/>
<path d="M1693 250 c0 -25 2 -35 4 -22 2 12 2 32 0 45 -2 12 -4 2 -4 -23z"/>
</g>
</svg>
